<svg xmlns="http://www.w3.org/2000/svg" aria-hidden="true" style="width:0;height:0;position:absolute;overflow:hidden"><defs><symbol id="icon-menu" viewBox="0 0 48 32"><path d="M0 32h48v-5.333H0V32zm0-13.333h48v-5.333H0v5.333zM0 0v5.333h48V0H0z"/></symbol><symbol id="icon-arrow" viewBox="0 0 32 32"><path d="M32 16c0 8.837-7.163 16-16 16S0 24.837 0 16 7.163 0 16 0s16 7.163 16 16z"/><path fill="#0c0b10" style="fill:var(--color2,#0c0b10)" d="M16.909 23.273V12.209l5.082 5.082L23.273 16 16 8.727 8.727 16l1.282 1.282 5.082-5.073v11.064h1.818z"/></symbol><symbol id="icon-close-modal" viewBox="0 0 32 32"><path d="M32 3.223 28.777 0 16 12.777 3.223 0 0 3.223 12.777 16 0 28.777 3.223 32 16 19.223 28.777 32 32 28.777 19.223 16 32 3.223z"/></symbol><symbol id="icon-up" viewBox="0 0 33 32"><path fill="#fff" style="fill:var(--color1,#fff)" d="M8.137 31.513c-1.391 0-2.69-.533-3.896-1.6C3.082 28.8 2.154 27.362 1.458 25.6c-.649-1.762-.974-3.641-.974-5.635 0-3.061.533-5.936 1.6-8.626 1.113-2.736 2.458-5.032 4.035-6.887C7.696 2.551 9.203 1.206 10.641.417h.07l2.435 2.226v.974c-1.159 1.067-2.249 2.597-3.27 4.591-1.02 1.948-1.53 4.359-1.53 7.235 0 1.484.209 2.69.626 3.617s1.043 1.948 1.878 3.061c.696.881 1.206 1.646 1.53 2.296s.487 1.438.487 2.365c0 1.391-.464 2.528-1.391 3.409-.881.881-1.994 1.322-3.339 1.322zm19.339 0c-1.391 0-2.667-.533-3.826-1.6-1.16-1.113-2.087-2.551-2.783-4.313-.649-1.762-.974-3.641-.974-5.635 0-3.061.533-5.936 1.6-8.626 1.113-2.736 2.458-5.055 4.035-6.957S28.612 1.159 30.05.417h.07l2.365 2.226v.974c-1.159 1.067-2.249 2.597-3.269 4.591-1.02 1.948-1.53 4.359-1.53 7.235 0 1.484.209 2.69.626 3.617s1.044 1.948 1.878 3.061c.696.881 1.206 1.646 1.53 2.296s.487 1.438.487 2.365c0 1.391-.464 2.528-1.391 3.409-.881.881-1.994 1.322-3.339 1.322z"/></symbol><symbol id="icon-down" viewBox="0 0 32 32"><path fill="#fff" style="fill:var(--color1,#fff)" d="M24.348 0c1.391 0 2.69.533 3.896 1.6 1.159 1.113 2.087 2.551 2.783 4.313.649 1.762.974 3.641.974 5.635 0 3.061-.533 5.936-1.6 8.626-1.113 2.736-2.458 5.032-4.035 6.887-1.577 1.901-3.084 3.246-4.522 4.035h-.07l-2.435-2.226v-.974c1.159-1.067 2.249-2.597 3.27-4.591 1.02-1.948 1.53-4.36 1.53-7.235 0-1.484-.209-2.69-.626-3.617s-1.043-1.948-1.878-3.061c-.696-.881-1.206-1.646-1.53-2.296s-.487-1.438-.487-2.365c0-1.391.464-2.528 1.391-3.409C21.89.441 23.003 0 24.348 0zM5.009 0C6.4 0 7.676.533 8.835 1.6c1.159 1.113 2.087 2.551 2.783 4.313.649 1.762.974 3.641.974 5.635 0 3.061-.533 5.936-1.6 8.626-1.113 2.736-2.458 5.055-4.035 6.957s-3.084 3.223-4.522 3.965h-.07L0 28.87v-.974c1.159-1.067 2.249-2.597 3.27-4.591 1.02-1.948 1.53-4.36 1.53-7.235 0-1.484-.209-2.69-.626-3.617s-1.043-1.948-1.878-3.061C1.6 8.511 1.09 7.746.766 7.096S.279 5.658.279 4.731c0-1.391.464-2.528 1.391-3.409C2.551.441 3.664 0 5.009 0z"/></symbol><symbol id="icon-footer" viewBox="0 0 32 32"><path d="M15.099 20.677c.753 0 1.411-.228 1.974-.684s.875-1.027.935-1.711h1.996c-.038.707-.281 1.38-.73 2.019s-1.05 1.148-1.802 1.529c-.745.38-1.536.57-2.373.57-1.681 0-3.019-.559-4.016-1.677-.989-1.126-1.483-2.662-1.483-4.609v-.354c0-1.202.221-2.27.662-3.206s1.072-1.662 1.894-2.179c.829-.517 1.806-.776 2.932-.776 1.384 0 2.533.415 3.445 1.243.92.829 1.411 1.905 1.472 3.229h-1.996c-.061-.799-.365-1.453-.913-1.962-.54-.517-1.209-.776-2.008-.776-1.072 0-1.905.388-2.498 1.164-.586.768-.878 1.882-.878 3.343v.399c0 1.422.293 2.517.878 3.286s1.422 1.152 2.51 1.152z"/><path fill="none" stroke-width="2.56" d="M30.08 16c0 7.776-6.304 14.08-14.08 14.08S1.92 23.776 1.92 16 8.224 1.92 16 1.92 30.08 8.224 30.08 16z"/></symbol><symbol id="icon-spinner" viewBox="0 0 32 32"><path d="M13 29a3 3 0 1 1 6 0 3 3 0 0 1-6 0zM0 16a3 3 0 1 1 6 0 3 3 0 0 1-6 0zm26 0a3 3 0 1 1 6 0 3 3 0 0 1-6 0zM3.808 6.808a3 3 0 1 1 6 0 3 3 0 0 1-6 0zm18.384 18.384a3 3 0 1 1 6 0 3 3 0 0 1-6 0zm-18.384 0a3 3 0 1 1 6 0 3 3 0 0 1-6 0zM22.192 6.808a3 3 0 1 1 6 0 3 3 0 0 1-6 0z"/></symbol></defs></svg>