<svg xmlns="http://www.w3.org/2000/svg" aria-hidden="true" style="position:absolute;width:0;height:0;overflow:hidden"><defs><symbol id="icon-menu" viewBox="0 0 48 32"><path d="M0 32h48v-5.333H0V32zm0-13.333h48v-5.333H0v5.333zM0 0v5.333h48V0H0z"/></symbol><symbol id="icon-arrow" viewBox="0 0 32 32">
<path d="M32 16c0 8.837-7.163 16-16 16s-16-7.163-16-16c0-8.837 7.163-16 16-16s16 7.163 16 16z"></path>
<path fill="#0c0b10" style="fill: var(--color2, #0c0b10)" d="M16.909 23.273v-11.064l5.082 5.082 1.282-1.291-7.273-7.273-7.273 7.273 1.282 1.282 5.082-5.073v11.064h1.818z"></path>
</symbol><symbol id="icon-close-modal" viewBox="0 0 32 32">
<path  d="M32 3.223l-3.223-3.223-12.777 12.777-12.777-12.777-3.223 3.223 12.777 12.777-12.777 12.777 3.223 3.223 12.777-12.777 12.777 12.777 3.223-3.223-12.777-12.777 12.777-12.777z"></path>
</symbol><symbol id="icon-up" viewBox="0 0 33 32">
<path fill="#fff" style="fill: var(--color1, #fff)" d="M8.137 31.513c-1.391 0-2.69-0.533-3.896-1.6-1.159-1.113-2.087-2.551-2.783-4.313-0.649-1.762-0.974-3.641-0.974-5.635 0-3.061 0.533-5.936 1.6-8.626 1.113-2.736 2.458-5.032 4.035-6.887 1.577-1.901 3.084-3.246 4.522-4.035h0.070l2.435 2.226v0.974c-1.159 1.067-2.249 2.597-3.27 4.591-1.020 1.948-1.53 4.359-1.53 7.235 0 1.484 0.209 2.69 0.626 3.617s1.043 1.948 1.878 3.061c0.696 0.881 1.206 1.646 1.53 2.296s0.487 1.438 0.487 2.365c0 1.391-0.464 2.528-1.391 3.409-0.881 0.881-1.994 1.322-3.339 1.322zM27.476 31.513c-1.391 0-2.667-0.533-3.826-1.6-1.16-1.113-2.087-2.551-2.783-4.313-0.649-1.762-0.974-3.641-0.974-5.635 0-3.061 0.533-5.936 1.6-8.626 1.113-2.736 2.458-5.055 4.035-6.957s3.084-3.223 4.522-3.965h0.070l2.365 2.226v0.974c-1.159 1.067-2.249 2.597-3.269 4.591-1.020 1.948-1.53 4.359-1.53 7.235 0 1.484 0.209 2.69 0.626 3.617s1.044 1.948 1.878 3.061c0.696 0.881 1.206 1.646 1.53 2.296s0.487 1.438 0.487 2.365c0 1.391-0.464 2.528-1.391 3.409-0.881 0.881-1.994 1.322-3.339 1.322z"></path>
</symbol><symbol id="icon-down" viewBox="0 0 32 32">
<path fill="#fff" style="fill: var(--color1, #fff)" d="M24.348-0c1.391 0 2.69 0.533 3.896 1.6 1.159 1.113 2.087 2.551 2.783 4.313 0.649 1.762 0.974 3.641 0.974 5.635 0 3.061-0.533 5.936-1.6 8.626-1.113 2.736-2.458 5.032-4.035 6.887-1.577 1.901-3.084 3.246-4.522 4.035h-0.070l-2.435-2.226v-0.974c1.159-1.067 2.249-2.597 3.27-4.591 1.020-1.948 1.53-4.36 1.53-7.235 0-1.484-0.209-2.69-0.626-3.617s-1.043-1.948-1.878-3.061c-0.696-0.881-1.206-1.646-1.53-2.296s-0.487-1.438-0.487-2.365c0-1.391 0.464-2.528 1.391-3.409 0.881-0.881 1.994-1.322 3.339-1.322zM5.009-0c1.391 0 2.667 0.533 3.826 1.6 1.159 1.113 2.087 2.551 2.783 4.313 0.649 1.762 0.974 3.641 0.974 5.635 0 3.061-0.533 5.936-1.6 8.626-1.113 2.736-2.458 5.055-4.035 6.957s-3.084 3.223-4.522 3.965h-0.070l-2.365-2.226v-0.974c1.159-1.067 2.249-2.597 3.27-4.591 1.020-1.948 1.53-4.36 1.53-7.235 0-1.484-0.209-2.69-0.626-3.617s-1.043-1.948-1.878-3.061c-0.696-0.881-1.206-1.646-1.53-2.296s-0.487-1.438-0.487-2.365c0-1.391 0.464-2.528 1.391-3.409 0.881-0.881 1.994-1.322 3.339-1.322z"></path>
</symbol></defs></svg>