<svg xmlns="http://www.w3.org/2000/svg" aria-hidden="true" style="position:absolute;width:0;height:0;overflow:hidden"><defs><symbol id="icon-menu" viewBox="0 0 48 32"><path d="M0 32h48v-5.333H0V32zm0-13.333h48v-5.333H0v5.333zM0 0v5.333h48V0H0z"/></symbol><symbol id="icon-arrow" viewBox="0 0 32 32">
<path d="M32 16c0 8.837-7.163 16-16 16s-16-7.163-16-16c0-8.837 7.163-16 16-16s16 7.163 16 16z"></path>
<path fill="#0c0b10" style="fill: var(--color2, #0c0b10)" d="M16.909 23.273v-11.064l5.082 5.082 1.282-1.291-7.273-7.273-7.273 7.273 1.282 1.282 5.082-5.073v11.064h1.818z"></path>
</symbol><symbol id="icon-close-modal" viewBox="0 0 32 32">
<path  d="M32 3.223l-3.223-3.223-12.777 12.777-12.777-12.777-3.223 3.223 12.777 12.777-12.777 12.777 3.223 3.223 12.777-12.777 12.777 12.777 3.223-3.223-12.777-12.777 12.777-12.777z"></path>
</symbol><symbol id="icon-up" viewBox="0 0 33 32">
<path fill="#fff" style="fill: var(--color1, #fff)" d="M8.137 31.513c-1.391 0-2.69-0.533-3.896-1.6-1.159-1.113-2.087-2.551-2.783-4.313-0.649-1.762-0.974-3.641-0.974-5.635 0-3.061 0.533-5.936 1.6-8.626 1.113-2.736 2.458-5.032 4.035-6.887 1.577-1.901 3.084-3.246 4.522-4.035h0.070l2.435 2.226v0.974c-1.159 1.067-2.249 2.597-3.27 4.591-1.020 1.948-1.53 4.359-1.53 7.235 0 1.484 0.209 2.69 0.626 3.617s1.043 1.948 1.878 3.061c0.696 0.881 1.206 1.646 1.53 2.296s0.487 1.438 0.487 2.365c0 1.391-0.464 2.528-1.391 3.409-0.881 0.881-1.994 1.322-3.339 1.322zM27.476 31.513c-1.391 0-2.667-0.533-3.826-1.6-1.16-1.113-2.087-2.551-2.783-4.313-0.649-1.762-0.974-3.641-0.974-5.635 0-3.061 0.533-5.936 1.6-8.626 1.113-2.736 2.458-5.055 4.035-6.957s3.084-3.223 4.522-3.965h0.070l2.365 2.226v0.974c-1.159 1.067-2.249 2.597-3.269 4.591-1.020 1.948-1.53 4.359-1.53 7.235 0 1.484 0.209 2.69 0.626 3.617s1.044 1.948 1.878 3.061c0.696 0.881 1.206 1.646 1.53 2.296s0.487 1.438 0.487 2.365c0 1.391-0.464 2.528-1.391 3.409-0.881 0.881-1.994 1.322-3.339 1.322z"></path>
</symbol><symbol id="icon-down" viewBox="0 0 32 32">
<path fill="#fff" style="fill: var(--color1, #fff)" d="M24.348-0c1.391 0 2.69 0.533 3.896 1.6 1.159 1.113 2.087 2.551 2.783 4.313 0.649 1.762 0.974 3.641 0.974 5.635 0 3.061-0.533 5.936-1.6 8.626-1.113 2.736-2.458 5.032-4.035 6.887-1.577 1.901-3.084 3.246-4.522 4.035h-0.070l-2.435-2.226v-0.974c1.159-1.067 2.249-2.597 3.27-4.591 1.020-1.948 1.53-4.36 1.53-7.235 0-1.484-0.209-2.69-0.626-3.617s-1.043-1.948-1.878-3.061c-0.696-0.881-1.206-1.646-1.53-2.296s-0.487-1.438-0.487-2.365c0-1.391 0.464-2.528 1.391-3.409 0.881-0.881 1.994-1.322 3.339-1.322zM5.009-0c1.391 0 2.667 0.533 3.826 1.6 1.159 1.113 2.087 2.551 2.783 4.313 0.649 1.762 0.974 3.641 0.974 5.635 0 3.061-0.533 5.936-1.6 8.626-1.113 2.736-2.458 5.055-4.035 6.957s-3.084 3.223-4.522 3.965h-0.070l-2.365-2.226v-0.974c1.159-1.067 2.249-2.597 3.27-4.591 1.020-1.948 1.53-4.36 1.53-7.235 0-1.484-0.209-2.69-0.626-3.617s-1.043-1.948-1.878-3.061c-0.696-0.881-1.206-1.646-1.53-2.296s-0.487-1.438-0.487-2.365c0-1.391 0.464-2.528 1.391-3.409 0.881-0.881 1.994-1.322 3.339-1.322z"></path>
</symbol><symbol id="icon-footer" viewBox="0 0 32 32">
<path  d="M15.099 20.677c0.753 0 1.411-0.228 1.974-0.684s0.875-1.027 0.935-1.711h1.996c-0.038 0.707-0.281 1.38-0.73 2.019s-1.050 1.148-1.802 1.529c-0.745 0.38-1.536 0.57-2.373 0.57-1.681 0-3.019-0.559-4.016-1.677-0.989-1.126-1.483-2.662-1.483-4.609v-0.354c0-1.202 0.221-2.27 0.662-3.206s1.072-1.662 1.894-2.179c0.829-0.517 1.806-0.776 2.932-0.776 1.384 0 2.533 0.415 3.445 1.243 0.92 0.829 1.411 1.905 1.472 3.229h-1.996c-0.061-0.799-0.365-1.453-0.913-1.962-0.54-0.517-1.209-0.776-2.008-0.776-1.072 0-1.905 0.388-2.498 1.164-0.586 0.768-0.878 1.882-0.878 3.343v0.399c0 1.422 0.293 2.517 0.878 3.286s1.422 1.152 2.51 1.152z"></path>
<path fill="none" stroke-linejoin="miter" stroke-linecap="butt" stroke-miterlimit="4" stroke-width="2.56" d="M30.080 16c0 7.776-6.304 14.080-14.080 14.080s-14.080-6.304-14.080-14.080c0-7.776 6.304-14.080 14.080-14.080s14.080 6.304 14.080 14.080z"></path>
</symbol><symbol id="icon-spinner" viewBox="0 0 32 32">
<path d="M13 29c0-1.657 1.343-3 3-3s3 1.343 3 3c0 1.657-1.343 3-3 3s-3-1.343-3-3zM0 16c0-1.657 1.343-3 3-3s3 1.343 3 3c0 1.657-1.343 3-3 3s-3-1.343-3-3zM26 16c0-1.657 1.343-3 3-3s3 1.343 3 3c0 1.657-1.343 3-3 3s-3-1.343-3-3zM3.808 6.808c0-1.657 1.343-3 3-3s3 1.343 3 3c0 1.657-1.343 3-3 3s-3-1.343-3-3zM22.192 25.192c0-1.657 1.343-3 3-3s3 1.343 3 3c0 1.657-1.343 3-3 3s-3-1.343-3-3zM3.808 25.192c0-1.657 1.343-3 3-3s3 1.343 3 3c0 1.657-1.343 3-3 3s-3-1.343-3-3zM22.192 6.808c0-1.657 1.343-3 3-3s3 1.343 3 3c0 1.657-1.343 3-3 3s-3-1.343-3-3z"></path>
</symbol><symbol id="icon-phone" viewBox="0 0 32 32">
<path fill="#fff" style="fill: var(--color1, #fff)" d="M22.111 16.778c-0.062 0.093-0.062 0.187-0.093 0.311-0.031 0.404 0.28 0.777 0.684 0.808s0.777-0.28 0.809-0.684c0-0.093 0-0.187 0.031-0.342 0-0.155 0-0.249 0-0.342 0-0.902-0.156-1.773-0.435-2.612-0.373-1.088-1.026-2.053-1.804-2.861-0.964-0.964-2.146-1.648-3.483-2.021-0.622-0.155-1.306-0.249-1.959-0.249-0.218 0-0.435 0-0.684 0.031-0.218 0.031-0.435 0.062-0.653 0.093-0.404 0.062-0.684 0.466-0.591 0.84 0.062 0.404 0.466 0.684 0.84 0.591 0.187-0.031 0.342-0.062 0.529-0.062 0.031 0 0.062 0 0.093 0 0.155 0 0.311-0.031 0.466-0.031 1.71 0 3.296 0.684 4.416 1.835 1.12 1.12 1.804 2.643 1.835 4.354v0.062c0 0.124 0 0.218 0 0.28z"></path>
<path fill="#fff" style="fill: var(--color1, #fff)" d="M26.216 17.462c-0.031 0.404 0.28 0.777 0.684 0.808s0.777-0.28 0.808-0.684c0.031-0.342 0.031-0.684 0.031-1.026 0-0.684-0.062-1.337-0.155-1.99-0.404-2.488-1.617-4.727-3.328-6.437-1.959-1.959-4.571-3.234-7.464-3.452-0.311-0.031-0.653-0.031-0.964-0.031-0.342 0-0.684 0-1.026 0.031s-0.684 0.062-1.026 0.124c-0.404 0.062-0.684 0.466-0.591 0.84 0.062 0.404 0.467 0.684 0.84 0.591 0.218-0.031 0.404-0.062 0.622-0.093 0.093 0 0.187-0.031 0.28-0.031 0.311-0.031 0.622-0.031 0.902-0.031 1.057 0 2.053 0.155 3.017 0.435 1.679 0.498 3.172 1.399 4.385 2.612 0.995 0.995 1.804 2.208 2.332 3.514 0.466 1.182 0.746 2.488 0.746 3.856 0 0.093 0 0.218 0 0.311-0.062 0.249-0.093 0.435-0.093 0.653z"></path>
<path fill="#fff" style="fill: var(--color1, #fff)" d="M27.273 5.147c-2.954-2.954-6.997-4.758-11.475-4.758-0.467 0-0.933 0.031-1.399 0.062s-0.933 0.093-1.399 0.187c-0.404 0.062-0.684 0.466-0.591 0.84 0.062 0.404 0.467 0.684 0.84 0.591 0.218-0.031 0.404-0.062 0.622-0.093s0.435-0.062 0.653-0.062 0.84-0.062 1.275-0.062c4.043 0 7.712 1.648 10.387 4.292 2.643 2.643 4.292 6.313 4.292 10.387 0 0.218 0 0.466 0 0.684 0 0.187-0.031 0.373-0.031 0.591-0.031 0.404 0.28 0.777 0.684 0.808s0.777-0.28 0.809-0.684c0.031-0.466 0.062-0.933 0.062-1.368 0-4.447-1.804-8.49-4.727-11.413z"></path>
<path fill="#fff" style="fill: var(--color1, #fff)" d="M30.849 23.993l-5.504-2.954c-1.835-0.995-1.897-0.342-3.825 1.71-0.466 0.498-1.337 1.804-2.363 1.555-2.146-0.529-6.157-3.67-7.464-5.1-0.622-0.684-3.296-3.949-3.328-5.007-0.062-1.617 3.483-2.426 2.332-5.504l-2.457-5.504c-2.301-5.287-8.739 3.172-8.21 7.122 1.368 9.734 18.441 25.47 27.958 20.276 2.115-1.182 4.976-5.318 2.861-6.593z"></path>
</symbol></defs></svg>